<svg xmlns="http://www.w3.org/2000/svg" width="51.507" height="46.014" viewBox="0 0 51.507 46.014">
  <g id="Grupo_3899" data-name="Grupo 3899" transform="translate(-98.176 -269.624)">
    <path id="Caminho_22541" data-name="Caminho 22541" d="M577.259,499.114,576.7,511.6s1.449,11.818,1.115,12.152-1.226,1-.557,1.784,3.122,1.338,3.233.892.334-13.156.334-13.156l.78-15.051Z" transform="translate(-456.117 -213.577)" fill="#2f2e41"/>
    <path id="Caminho_22542" data-name="Caminho 22542" d="M577.259,499.114,576.7,511.6s1.449,11.818,1.115,12.152-1.226,1-.557,1.784,3.122,1.338,3.233.892.334-13.156.334-13.156l.78-15.051Z" transform="translate(-456.117 -213.577)" opacity="0.2"/>
    <path id="Caminho_22543" data-name="Caminho 22543" d="M546.077,741.222a25.218,25.218,0,0,1-3.122,2.118c-.334,0-3.345,1-1.226,1.449s7.247.223,7.358-.446a12.407,12.407,0,0,0-.334-2.7Z" transform="translate(-424.377 -429.486)" fill="#2f2e41"/>
    <path id="Caminho_22544" data-name="Caminho 22544" d="M546.077,741.222a25.218,25.218,0,0,1-3.122,2.118c-.334,0-3.345,1-1.226,1.449s7.247.223,7.358-.446a12.407,12.407,0,0,0-.334-2.7Z" transform="translate(-424.377 -429.486)" opacity="0.2"/>
    <path id="Caminho_22545" data-name="Caminho 22545" d="M494.258,422.222s-1.226.446-1.226.78a33.786,33.786,0,0,1-1.338,4.794,3.383,3.383,0,0,0-.334,1.226s-1.115,2.564-.892,2.564,2.118-.446,2.23,0,1-2.787,1-2.787l1.9-3.791Z" transform="translate(-379.469 -146.05)" fill="#fe5000"/>
    <path id="Caminho_22546" data-name="Caminho 22546" d="M490.7,506.668s.334,2.453,1.226,2.676,0-3.122,0-3.122Z" transform="translate(-379.704 -220.685)" fill="#ffb8b8"/>
    <path id="Caminho_22547" data-name="Caminho 22547" d="M516.7,397.038s.669,1.449,1,2.23,3.456-2.007,3.456-2.007-1.672-1.226-1.672-1.784S516.7,397.038,516.7,397.038Z" transform="translate(-402.806 -122.204)" fill="#ffb8b8"/>
    <path id="Caminho_22550" data-name="Caminho 22550" d="M385.847,614.513a10.145,10.145,0,1,1,10.145-10.145A10.145,10.145,0,0,1,385.847,614.513Zm0-20.068a9.922,9.922,0,1,0,9.922,9.922A9.922,9.922,0,0,0,385.847,594.445Z" transform="translate(-277.526 -298.874)" fill="#2f2e41"/>
    <path id="Caminho_22551" data-name="Caminho 22551" d="M665.847,614.513a10.145,10.145,0,1,1,10.145-10.145A10.145,10.145,0,0,1,665.847,614.513Zm0-20.068a9.922,9.922,0,1,0,9.922,9.922A9.922,9.922,0,0,0,665.847,594.445Z" transform="translate(-526.309 -298.874)" fill="#2f2e41"/>
    <circle id="Elipse_638" data-name="Elipse 638" cx="0.669" cy="0.669" r="0.669" transform="translate(107.653 304.824)" fill="#2f2e41"/>
    <circle id="Elipse_639" data-name="Elipse 639" cx="0.669" cy="0.669" r="0.669" transform="translate(139.092 304.824)" fill="#2f2e41"/>
    <path id="Caminho_22552" data-name="Caminho 22552" d="M342.785,443.689l-.205-.088,5.827-13.671,16.524.337.032.05,8.139,12.71-.188.12-8.107-12.659-16.254-.332Z" transform="translate(-233.469 -139.156)" fill="#2f2e41"/>
    <path id="Caminho_22553" data-name="Caminho 22553" d="M500.125,455.774l4.283-15.1.214.061-4.19,14.777,11.2-1.428.028.221Z" transform="translate(-373.45 -148.699)" fill="#2f2e41"/>
    <rect id="Retângulo_625" data-name="Retângulo 625" width="0.223" height="16.398" transform="matrix(0.714, -0.7, 0.7, 0.714, 114.374, 294.311)" fill="#2f2e41"/>
    <rect id="Retângulo_626" data-name="Retângulo 626" width="2.542" height="0.223" transform="matrix(0.263, -0.965, 0.965, 0.263, 131.404, 290.859)" fill="#2f2e41"/>
    <path id="Caminho_22554" data-name="Caminho 22554" d="M386.058,393.76l-.218-.049.527-2.316H384.5v-1.449h.223v1.226h1.923Z" transform="translate(-270.715 -103.628)" fill="#2f2e41"/>
    <path id="Caminho_22555" data-name="Caminho 22555" d="M643.7,508.81s0-.669,1.449-.335a54.151,54.151,0,0,0,6.243,1.115c.334-.112.223.669-1.226,1a5.355,5.355,0,0,1-3.456-.669C646.378,509.7,643.7,508.81,643.7,508.81Z" transform="translate(-515.647 -222.604)" fill="#2f2e41"/>
    <rect id="Retângulo_627" data-name="Retângulo 627" width="2.899" height="1.115" transform="translate(121.143 306.162)" fill="#fe5000"/>
    <path id="Caminho_22556" data-name="Caminho 22556" d="M614.932,682.682a2.23,2.23,0,1,1,2.23-2.23A2.23,2.23,0,0,1,614.932,682.682Zm0-4.237a2.007,2.007,0,1,0,2.007,2.007A2.007,2.007,0,0,0,614.932,678.445Z" transform="translate(-488.103 -373.509)" fill="#2f2e41"/>
    <circle id="Elipse_640" data-name="Elipse 640" cx="2.676" cy="2.676" r="2.676" transform="translate(112.224 270.598)" fill="#ffb8b8"/>
    <path id="Caminho_22557" data-name="Caminho 22557" d="M541.274,495.98s-7.693,4.46-7.581,5.909,5.909,9.365,5.909,9.365.446,2.341.892,2.341,3.233,1,3.345.334-.892-1.449-.781-1.9-4.905-8.585-4.905-8.585,10.737-4.014,8.49-7.47S541.274,495.98,541.274,495.98Z" transform="translate(-417.901 -210.22)" fill="#2f2e41"/>
    <path id="Caminho_22558" data-name="Caminho 22558" d="M565.68,662.222s-1.338.334-1.561.78-4.125,1.9-3.01,2.23a38.022,38.022,0,0,0,7.8.223c.223-.223,0-2.811-.892-2.8S566.126,663,565.68,662.222Z" transform="translate(-442.084 -359.293)" fill="#2f2e41"/>
    <path id="Caminho_22559" data-name="Caminho 22559" d="M517.705,407.122l2.508-3.066s2.843-.836,4.069.836a60.979,60.979,0,0,0,5.686,6.689c1.115.892,2.676,4.348,2.118,4.46s-3.679-1.226-4.905-.335-3.568,1-3.679.557-6.8-7.916-6.8-8.919a1.175,1.175,0,0,1,.713-1.219Z" transform="translate(-402.806 -129.724)" fill="#fe5000"/>
    <rect id="Retângulo_628" data-name="Retângulo 628" width="4.237" height="0.669" rx="0.334" transform="matrix(0.943, 0.333, -0.333, 0.943, 112.568, 284.961)" fill="#2f2e41"/>
    <path id="Caminho_22560" data-name="Caminho 22560" d="M441.108,500.222s-3.9,1.115-3.568,2.341,3.9-1.449,3.9-1.449Z" transform="translate(-332.451 -215.354)" fill="#ffb8b8"/>
    <path id="Caminho_22561" data-name="Caminho 22561" d="M474.244,412.905a6.37,6.37,0,0,0-1.9,2.9,20.592,20.592,0,0,1-2.007,4.348l-6.8,2.23s-.446,2.118.223,2.118,8.139-1.561,8.362-1.9,5.017-6.689,5.017-6.689S477.589,412.459,474.244,412.905Z" transform="translate(-355.443 -137.737)" fill="#fe5000"/>
    <path id="Caminho_22562" data-name="Caminho 22562" d="M499.2,364.045a.528.528,0,0,1-.23.115.164.164,0,0,1-.19-.132.681.681,0,0,1-.261.334c-.128.067-.325.011-.343-.132a.6.6,0,0,1-.139.293.208.208,0,0,1-.292.01,7.5,7.5,0,0,1,.039.93,1.184,1.184,0,0,0,.335.843,1.649,1.649,0,0,0,1.3.168.4.4,0,0,1,.2.011c.168.072.161.306.163.489a1.358,1.358,0,0,0,1.189,1.29.681.681,0,0,0,.506-.124c.128-.108.193-.284.339-.366.238-.132.526.061.7.27s.345.467.615.505c.356.051.628-.312.761-.647a3.771,3.771,0,0,0-.075-2.93C503.084,363.351,500.542,363.095,499.2,364.045Z" transform="translate(-385.964 -93.869)" fill="#2f2e41"/>
  </g>
</svg>
