<svg xmlns="http://www.w3.org/2000/svg" width="53.484" height="53.482" viewBox="0 0 53.484 53.482">
  <g id="Grupo_3885" data-name="Grupo 3885" transform="translate(0 0)">
    <path id="Caminho_22301" data-name="Caminho 22301" d="M543.973,241.927H515.8a.741.741,0,0,1-.74-.74v-11.43a.741.741,0,0,1,.74-.74h28.17a.741.741,0,0,1,.74.74v11.43A.741.741,0,0,1,543.973,241.927Z" transform="translate(-491.228 -229.016)" fill="#e4e4e4"/>
    <path id="Caminho_22302" data-name="Caminho 22302" d="M560.8,375.352H538a.889.889,0,0,1,0-1.777h22.8A.889.889,0,0,1,560.8,375.352Z" transform="translate(-510.741 -356.958)" fill="#e4e4e4"/>
    <path id="Caminho_22303" data-name="Caminho 22303" d="M608.934,507.352H600.5a.888.888,0,1,1,0-1.777h8.437A.889.889,0,0,1,608.934,507.352Z" transform="translate(-566.056 -473.785)" fill="#3f3d56"/>
    <path id="Caminho_22304" data-name="Caminho 22304" d="M560.8,410.78H538A.889.889,0,0,1,538,409h22.8A.889.889,0,0,1,560.8,410.78Z" transform="translate(-510.741 -388.314)" fill="#e4e4e4"/>
    <path id="Caminho_22305" data-name="Caminho 22305" d="M560.8,446.207H538a.888.888,0,0,1,0-1.777h22.8A.889.889,0,0,1,560.8,446.207Z" transform="translate(-510.741 -419.668)" fill="#e4e4e4"/>
    <path id="Caminho_22306" data-name="Caminho 22306" d="M487.512,549.691a.739.739,0,0,0-.738.738v15.133a.739.739,0,0,0,.738.738h1.816a.739.739,0,0,0,.738-.738V550.429a.739.739,0,0,0-.738-.738Z" transform="translate(-466.191 -512.83)" fill="#fe5000"/>
    <path id="Caminho_22307" data-name="Caminho 22307" d="M456.269,549.691a.739.739,0,0,0-.738.738v15.133a.739.739,0,0,0,.738.738h1.816a.739.739,0,0,0,.738-.738V550.429a.739.739,0,0,0-.738-.738Z" transform="translate(-438.539 -512.83)" fill="#fe5000"/>
    <circle id="Elipse_588" data-name="Elipse 588" cx="6.274" cy="6.274" r="6.274" transform="translate(14.105 8.458)" fill="#fe5000"/>
    <path id="Caminho_22308" data-name="Caminho 22308" d="M524.111,347.843a2.263,2.263,0,0,0,1.3-.31,1,1,0,0,0,.394-.747.673.673,0,0,0-.229-.553.868.868,0,0,0-.822-.118l.332-2.427-.244-.033-.39,2.853.2-.093a.745.745,0,0,1,.761.007.433.433,0,0,1,.142.356.756.756,0,0,1-.293.557,2.034,2.034,0,0,1-1.164.263Z" transform="translate(-499.23 -330.477)" fill="#2f2e41"/>
    <rect id="Ret창ngulo_615" data-name="Ret창ngulo 615" width="1.325" height="0.246" transform="translate(27.064 13.42)" fill="#2f2e41"/>
    <rect id="Ret창ngulo_616" data-name="Ret창ngulo 616" width="1.325" height="0.246" transform="translate(22.881 13.42)" fill="#2f2e41"/>
    <path id="Caminho_22309" data-name="Caminho 22309" d="M446.2,446.485h-7.609a3.628,3.628,0,0,1-3.594-4.12l1.817-13.268a.8.8,0,0,1,.788-.688h1.639c0-.023,0-.044,0-.066v-.615a.8.8,0,0,1,.8-.8h1.476a.8.8,0,0,1,.8.8v.615c0,.021,0,.043,0,.066h1.639a.8.8,0,0,1,.788.688l2.258,16.485a.8.8,0,0,1-.788.9Z" transform="translate(-420.336 -404.182)" fill="#2f2e41"/>
    <path id="Caminho_22310" data-name="Caminho 22310" d="M419.251,295.042l-4.34-1.684c-.71-.275-1.423-.542-2.129-.827a2.426,2.426,0,0,1-.82-.483,1.611,1.611,0,0,1-.409-.791,8.147,8.147,0,0,1-.113-1.981,15.1,15.1,0,0,1,.175-2.121,10.245,10.245,0,0,1,1.31-3.737,6.519,6.519,0,0,1,5.726-3.379,4.9,4.9,0,0,1,3.069,1.22,1.936,1.936,0,0,0,.29.281.4.4,0,0,0,.231.015q.152-.01.3-.015a6.274,6.274,0,0,1,1.054.044,3.336,3.336,0,0,1,1.738.722,2.12,2.12,0,0,1,.787,1.42,1.68,1.68,0,0,1-.568,1.372c-.518.436-1.256.283-1.877.25l-2.275-.121-1.153-.061c-.237-.013-.237.357,0,.369l3.064.162a13.394,13.394,0,0,0,1.493.06,1.67,1.67,0,0,0,1.025-.412,2.046,2.046,0,0,0,.62-1.919,2.743,2.743,0,0,0-1.379-1.751,5.224,5.224,0,0,0-2.97-.479l.13.054a5.378,5.378,0,0,0-4.5-1.552,6.74,6.74,0,0,0-4.355,2.465,10.142,10.142,0,0,0-2.156,5.171,17.2,17.2,0,0,0-.133,3.061,3.857,3.857,0,0,0,.228,1.323,1.893,1.893,0,0,0,.889.953,12.718,12.718,0,0,0,1.411.58l1.6.621,3.141,1.219.8.31C419.374,295.484,419.47,295.127,419.251,295.042Z" transform="translate(-399.188 -273.84)" fill="#2f2e41"/>
    <path id="Caminho_22311" data-name="Caminho 22311" d="M408.209,274.992a1.907,1.907,0,1,1,1.907-1.907A1.907,1.907,0,0,1,408.209,274.992Zm0-3.445a1.538,1.538,0,1,0,1.538,1.538,1.538,1.538,0,0,0-1.538-1.538Z" transform="translate(-394.97 -266.332)" fill="#2f2e41"/>
    <path id="Caminho_22312" data-name="Caminho 22312" d="M488.408,463.574a.739.739,0,0,0-.49-.922l-13.6-4.16a1.646,1.646,0,0,0-1.935,2.347h0a1.624,1.624,0,0,0,.8.74,1.7,1.7,0,0,0,.167.061l13.6,4.16a.738.738,0,0,0,.922-.49Z" transform="translate(-453.281 -432.051)" fill="#fe5000"/>
    <path id="Caminho_22313" data-name="Caminho 22313" d="M473.73,455.944a1.332,1.332,0,0,1-.3-.121l-3.787-1.225c-1.8-.752-1.2-2.742-.71-4.644l.023-.089,3.864-.667,2.911,1.3a1.331,1.331,0,0,1,.7,1.685l-1.115,2.945A1.331,1.331,0,0,1,473.73,455.944Z" transform="translate(-449.954 -423.889)" fill="#2f2e41"/>
    <path id="Caminho_22314" data-name="Caminho 22314" d="M350.187,692.183H307.852a.137.137,0,1,1,0-.274h42.335a.137.137,0,0,1,0,.274Z" transform="translate(-307.715 -638.701)" fill="#3f3d56"/>
  </g>
</svg>
