<svg xmlns="http://www.w3.org/2000/svg" width="46.283" height="46.079" viewBox="0 0 46.283 46.079">
  <g id="Grupo_3918" data-name="Grupo 3918" transform="translate(-44.359 -409.921)">
    <path id="Caminho_22568" data-name="Caminho 22568" d="M609.992,244.067h-40.83c-1.41,0-2.552-.239-2.552-.533s1.142-.533,2.552-.533h40.83c1.409,0,2.551.239,2.551.533S611.4,244.067,609.992,244.067Z" transform="translate(-522.251 189.742)" fill="#fe5000"/>
    <g id="Grupo_3917" data-name="Grupo 3917">
      <path id="Caminho_22567" data-name="Caminho 22567" d="M587.045,238.067H567.812c-.664,0-1.2-.239-1.2-.533s.538-.533,1.2-.533h19.233c.664,0,1.2.239,1.2.533S587.709,238.067,587.045,238.067Z" transform="translate(-502.551 181.488)" fill="#fe5000"/>
      <g id="Grupo_3914" data-name="Grupo 3914" transform="translate(49.99 415.907)">
        <path id="Caminho_22589" data-name="Caminho 22589" d="M698.125,327.529a3.515,3.515,0,1,1,3.515-3.515A3.515,3.515,0,0,1,698.125,327.529Z" transform="translate(-693.08 -320.5)" fill="none" stroke="#fe5000" stroke-width="1"/>
        <path id="Caminho_22590" data-name="Caminho 22590" d="M699.246,346.358h-7.018a1.46,1.46,0,0,1-1.535-1.367,5.078,5.078,0,0,1,10.089,0A1.46,1.46,0,0,1,699.246,346.358Z" transform="translate(-690.693 -332.69)" fill="none" stroke="#fe5000" stroke-width="1"/>
      </g>
      <path id="Caminho_22591" data-name="Caminho 22591" d="M711.8,353.079H679.7a7.084,7.084,0,0,1-7.092-7.06V314.061A7.084,7.084,0,0,1,679.7,307h32.1a7.084,7.084,0,0,1,7.092,7.061v31.958A7.084,7.084,0,0,1,711.8,353.079Zm-32.1-44.592a5.593,5.593,0,0,0-5.6,5.574v31.958a5.593,5.593,0,0,0,5.6,5.574h32.1a5.592,5.592,0,0,0,5.6-5.574V314.061a5.593,5.593,0,0,0-5.6-5.574Z" transform="translate(-628.251 102.922)" fill="#fe5000"/>
      <path id="Caminho_22592" data-name="Caminho 22592" d="M587.045,238.067H567.812c-.664,0-1.2-.239-1.2-.533s.538-.533,1.2-.533h19.233c.664,0,1.2.239,1.2.533S587.709,238.067,587.045,238.067Z" transform="translate(-502.551 185.742)" fill="#fe5000"/>
      <path id="Caminho_22593" data-name="Caminho 22593" d="M587.045,238.067H567.812c-.664,0-1.2-.239-1.2-.533s.538-.533,1.2-.533h19.233c.664,0,1.2.239,1.2.533S587.709,238.067,587.045,238.067Z" transform="translate(-502.551 189.995)" fill="#fe5000"/>
      <path id="Caminho_22594" data-name="Caminho 22594" d="M600.333,238.067H568.593c-1.1,0-1.983-.239-1.983-.533s.888-.533,1.983-.533h31.739c1.1,0,1.984.239,1.984.533S601.428,238.067,600.333,238.067Z" transform="translate(-516.619 201.488)" fill="#fe5000"/>
      <path id="Caminho_22595" data-name="Caminho 22595" d="M600.333,238.067H568.593c-1.1,0-1.983-.239-1.983-.533s.888-.533,1.983-.533h31.739c1.1,0,1.984.239,1.984.533S601.428,238.067,600.333,238.067Z" transform="translate(-516.619 207.234)" fill="#fe5000"/>
      <path id="Caminho_22596" data-name="Caminho 22596" d="M600.333,238.067H568.593c-1.1,0-1.983-.239-1.983-.533s.888-.533,1.983-.533h31.739c1.1,0,1.984.239,1.984.533S601.428,238.067,600.333,238.067Z" transform="translate(-516.619 212.981)" fill="#fe5000"/>
    </g>
  </g>
</svg>
