<svg xmlns="http://www.w3.org/2000/svg" width="21.5" height="16.186" viewBox="0 0 21.5 16.186">
  <g id="ic-contact-edit-contact" transform="translate(-1.25 -3.204)">
    <path id="Caminho_78" data-name="Caminho 78" d="M22,12.27v4.37a2,2,0,0,1-2,2H4a2,2,0,0,1-2-2V7.36a2,2,0,0,1,2-2h6.76" fill="none" stroke="#fff" stroke-linecap="round" stroke-linejoin="bevel" stroke-width="1.5" fill-rule="evenodd"/>
    <path id="Caminho_79" data-name="Caminho 79" d="M19.3,4.25a1,1,0,0,0-1.42,0l-6,6h0l-.1,3a.21.21,0,0,0,.23.22l3-.1h0l6-6A1,1,0,0,0,21,6Z" fill="none" stroke="#fff" stroke-linecap="round" stroke-linejoin="round" stroke-width="1.5"/>
  </g>
</svg>
