<svg xmlns="http://www.w3.org/2000/svg" width="91.676" height="108.268" viewBox="0 0 91.676 108.268">
  <g id="Grupo_3930" data-name="Grupo 3930" transform="translate(0 0)">
    <path id="Caminho_22640" data-name="Caminho 22640" d="M509.806,350.58l.907,17.412s-38.359-36.509-43.137-47.191,4.216-37.106,4.216-37.106l19.959,10.963Z" transform="translate(-444.61 -259.723)" fill="#9f616a"/>
    <path id="Caminho_22641" data-name="Caminho 22641" d="M353.647,243.4l-5.9.562s-3.092,6.747,6.465,7.309Z" transform="translate(-347.267 -226.733)" fill="#9f616a"/>
    <path id="Caminho_22642" data-name="Caminho 22642" d="M353.647,300.743l-5.9.562s-3.092,6.747,6.465,7.309Z" transform="translate(-347.267 -273.679)" fill="#9f616a"/>
    <path id="Caminho_22643" data-name="Caminho 22643" d="M353.647,362.739l-5.9.562s-3.092,6.747,6.465,7.309Z" transform="translate(-347.267 -324.431)" fill="#9f616a"/>
    <path id="Caminho_22644" data-name="Caminho 22644" d="M362.947,424.735l-5.9.562s-3.092,6.747,6.465,7.309Z" transform="translate(-354.88 -375.183)" fill="#9f616a"/>
    <path id="Caminho_22645" data-name="Caminho 22645" d="M366.6,170.9h.448V158.63a7.1,7.1,0,0,1,7.1-7.1h26a7.1,7.1,0,0,1,7.1,7.1v67.318a7.1,7.1,0,0,1-7.1,7.1h-26a7.1,7.1,0,0,1-7.1-7.1V179.635H366.6Z" transform="translate(-363.094 -151.527)" fill="#3f3d56"/>
    <path id="Caminho_22646" data-name="Caminho 22646" d="M382.708,161.715H386.1a2.52,2.52,0,0,0,2.333,3.471h14.893a2.52,2.52,0,0,0,2.333-3.471h3.17a5.3,5.3,0,0,1,5.3,5.3v67.219a5.3,5.3,0,0,1-5.3,5.3H382.708a5.3,5.3,0,0,1-5.3-5.3h0V167.019a5.3,5.3,0,0,1,5.3-5.3Z" transform="translate(-371.939 -159.867)" fill="#fff"/>
    <rect id="Retângulo_634" data-name="Retângulo 634" width="11.193" height="2.701" transform="translate(18.234 20.68)" fill="#fe5000"/>
    <rect id="Retângulo_635" data-name="Retângulo 635" width="12.259" height="2.701" transform="translate(17.701 32.286)" fill="#e5e5e5"/>
    <rect id="Retângulo_636" data-name="Retângulo 636" width="27.361" height="2.701" transform="translate(10.15 38.088)" fill="#e5e5e5"/>
    <rect id="Retângulo_637" data-name="Retângulo 637" width="27.361" height="2.701" transform="translate(10.15 43.89)" fill="#e5e5e5"/>
    <path id="Caminho_22647" data-name="Caminho 22647" d="M619.275,309.531l-31.464-35.9-1.124-23.051L574.88,230.907l-3.373-8.433s-7.871.843-1.406,16.866l2.67,8.574h0a39.3,39.3,0,0,0-3.654,16.549V284.11c0,4.626,22.046,29.825,24.612,33.674h0Z" transform="translate(-527.599 -209.606)" fill="#9f616a"/>
    <path id="Caminho_22648" data-name="Caminho 22648" d="M232.1,86.765l2.347-1.154-.08-.163L232.2,86.515l-3.274-8.583-.169.065Z" transform="translate(-187.265 -63.797)" opacity="0.2"/>
    <rect id="Retângulo_638" data-name="Retângulo 638" width="0.181" height="3.705" transform="translate(0.446 17.31) rotate(-69.778)" opacity="0.2"/>
    <rect id="Retângulo_639" data-name="Retângulo 639" width="0.181" height="3.705" transform="translate(0.446 27.829) rotate(-69.778)" opacity="0.2"/>
    <rect id="Retângulo_640" data-name="Retângulo 640" width="0.181" height="3.705" transform="translate(0.446 39.074) rotate(-69.778)" opacity="0.2"/>
    <rect id="Retângulo_641" data-name="Retângulo 641" width="0.181" height="1.878" transform="translate(2.252 50.316) rotate(-64.361)" opacity="0.2"/>
    <circle id="Elipse_651" data-name="Elipse 651" cx="7.841" cy="7.841" r="7.841" transform="translate(16.004 54.22)" fill="#fe5000"/>
    <path id="Caminho_22649" data-name="Caminho 22649" d="M116.76,330.577l-2.347-3.017,1.365-1.061,1.111,1.429,3.754-3.963,1.255,1.189Z" transform="translate(-93.662 -265.206)" fill="#fff"/>
  </g>
</svg>
