<svg xmlns="http://www.w3.org/2000/svg" width="58.572" height="58.572" viewBox="0 0 58.572 58.572">
  <g id="Grupo_3921" data-name="Grupo 3921" transform="translate(-241.646 -248.131)">
    <path id="Caminho_22597" data-name="Caminho 22597" d="M894.729,148.179c-.1.154-.212.305-.32.456l-.246-.5-.039-.081-.244-.488-6.214-12.522,0,0-10.533-21.218v0l-.242-.486v0l-5.213-10.5-.246-.5q.278.007.556.022l.249.5,5.2,10.477,0,0,.242.486v0l10.265,20.678v0l.242.486v0L894.4,147.51l.083.168Z" transform="translate(-599.661 145.804)" fill="#3f3d56"/>
    <path id="Caminho_22598" data-name="Caminho 22598" d="M819.231,147.907h-46.5c.125-.164.251-.327.383-.488h45.735C818.98,147.58,819.107,147.744,819.231,147.907Z" transform="translate(-525.048 111.726)" fill="#3f3d56"/>
    <path id="Caminho_22599" data-name="Caminho 22599" d="M950.346,234.159c-.015.164-.032.327-.054.488H938.38v-.488Z" transform="translate(-650.271 46.155)" fill="#3f3d56"/>
    <path id="Caminho_22600" data-name="Caminho 22600" d="M778.468,140.828v39.761c-.168-.178-.33-.359-.488-.539V141.367C778.139,141.187,778.3,141.006,778.468,140.828Z" transform="translate(-529.017 116.708)" fill="#3f3d56"/>
    <rect id="Retângulo_630" data-name="Retângulo 630" width="45.408" height="0.488" transform="translate(249.207 293.375)" fill="#3f3d56"/>
    <path id="Caminho_22601" data-name="Caminho 22601" d="M838.013,166.834c0,4.16-6.118,15.891-8.416,20.15a.975.975,0,0,1-1.717,0c-2.3-4.259-8.416-15.99-8.416-20.15a9.274,9.274,0,0,1,18.548,0Z" transform="translate(-560.378 104.06)" fill="#fe5000"/>
    <circle id="Elipse_645" data-name="Elipse 645" cx="4.149" cy="4.149" r="4.149" transform="translate(264.212 266.745)" fill="#fff"/>
    <circle id="Elipse_646" data-name="Elipse 646" cx="1.708" cy="1.708" r="1.708" transform="translate(266.653 292.126)" fill="#fe5000"/>
    <path id="Caminho_22639" data-name="Caminho 22639" d="M800.912,148.021h.056v-.081A.8.8,0,0,1,800.912,148.021Zm-.376-34.23c-.125-.164-.251-.327-.383-.488a29.233,29.233,0,0,0-21.474-10.98q-.278-.015-.556-.022c-.278-.007-.557-.012-.837-.012a29.2,29.2,0,0,0-21.481,9.406c-.168.178-.329.359-.488.539q-.465.523-.9,1.069c-.132.161-.259.325-.383.488a29.22,29.22,0,0,0,1.281,37.125c.159.181.32.361.488.539a29.247,29.247,0,0,0,45.3-2.858c.108-.151.215-.3.32-.456a29.051,29.051,0,0,0,4.952-13.181c.022-.161.039-.325.054-.488q.143-1.428.144-2.9A29.12,29.12,0,0,0,800.536,113.791Zm5.347,21.169a28.542,28.542,0,0,1-4.71,12.681q-.1.15-.2.3a.81.81,0,0,1-.056.081c-.017.027-.037.054-.056.081a28.764,28.764,0,0,1-45.052,2.631c-.168-.185-.332-.371-.488-.561a28.74,28.74,0,0,1-.666-36.381c.129-.164.259-.327.393-.488.088-.11.178-.217.273-.325.156-.19.32-.376.488-.561a28.716,28.716,0,0,1,21.481-9.64q.545,0,1.084.022c.188,0,.373.015.559.024a28.761,28.761,0,0,1,20.6,10.479c.134.161.264.325.393.488a28.8,28.8,0,0,1,6.018,20.681c-.017.163-.034.327-.056.488Zm-4.971,13.062h.056v-.081a.812.812,0,0,1-.056.081Z" transform="translate(-506.354 145.842)" fill="#ccc"/>
  </g>
</svg>
