<svg xmlns="http://www.w3.org/2000/svg" width="60.275" height="46.014" viewBox="0 0 60.275 46.014">
  <g id="Grupo_3900" data-name="Grupo 3900" transform="translate(-164.155 -307)">
    <path id="Caminho_22509" data-name="Caminho 22509" d="M884.376,574.007q-.161.037-.323.067h.585c.076-.021.153-.043.228-.067q.249-.078.491-.179a4.4,4.4,0,0,0,1.691-1.219,3.436,3.436,0,0,0,.533-.871,3.958,3.958,0,0,0,.273-1.115,7.928,7.928,0,0,0-.157-2.364,9.868,9.868,0,0,0-.771-2.312q-.063-.132-.131-.263a.051.051,0,0,0-.034-.029.059.059,0,0,0-.044.009.07.07,0,0,0-.028.093,9.754,9.754,0,0,1,.818,2.229,8.576,8.576,0,0,1,.243,2.32,3.7,3.7,0,0,1-.652,2.031,4.1,4.1,0,0,1-1.534,1.259A5.627,5.627,0,0,1,884.376,574.007Z" transform="translate(-663.452 -221.06)" fill="#fff"/>
    <path id="Caminho_22510" data-name="Caminho 22510" d="M876.437,601.2h.172l.056-.067a3.676,3.676,0,0,0,.774-1.653,3.586,3.586,0,0,0-.309-2.232,3.656,3.656,0,0,0-.334-.553c-.045.01-.09.021-.134.034a3.469,3.469,0,0,1-.165,4.4Z" transform="translate(-656.796 -248.189)" fill="#fff"/>
    <path id="Caminho_22511" data-name="Caminho 22511" d="M507.24,446.3H495.135l-.128-3.722a1.117,1.117,0,0,1,1.253-1.148l7.045.863h0a3.947,3.947,0,0,1,3.936,3.944Z" transform="translate(-323.473 -112.494)" fill="#fe5000"/>
    <path id="Caminho_22512" data-name="Caminho 22512" d="M484.808,375.414h-8.443a.855.855,0,0,0-.855.855v8.443a.855.855,0,0,0,.855.855h8.443a.855.855,0,0,0,.855-.855v-8.443A.855.855,0,0,0,484.808,375.414Z" transform="translate(-306.436 -54.814)" fill="#ccc"/>
    <path id="Caminho_22513" data-name="Caminho 22513" d="M496.914,402.1l-3.986.776a.909.909,0,0,1-1.065-.718l-.306-1.574a.909.909,0,0,1,.718-1.065l3.986-.776a.909.909,0,0,1,1.065.718l.306,1.574A.909.909,0,0,1,496.914,402.1Z" transform="translate(-320.444 -75.183)" fill="#3f3d56"/>
    <path id="Caminho_22514" data-name="Caminho 22514" d="M504.988,407.8l-3.042.592a.214.214,0,0,1-.082-.42l3.042-.592a.214.214,0,0,1,.082.42Z" transform="translate(-329.315 -82.743)" fill="#fff"/>
    <path id="Caminho_22515" data-name="Caminho 22515" d="M510.476,414.753l-1.574.306a.214.214,0,0,1-.082-.42l1.574-.306a.214.214,0,0,1,.082.42Z" transform="translate(-335.394 -88.821)" fill="#fff"/>
    <path id="Caminho_22516" data-name="Caminho 22516" d="M485.663,376.269v1.122H475.51v-1.122a.855.855,0,0,1,.855-.855h8.443A.855.855,0,0,1,485.663,376.269Z" transform="translate(-306.436 -54.814)" fill="#b3b3b3"/>
    <path id="Caminho_22517" data-name="Caminho 22517" d="M619.457,359.44a1.355,1.355,0,0,0-1.916-.8l-11.616-4.167-.512,2.9,11.579,3.184a1.362,1.362,0,0,0,2.465-1.116Z" transform="translate(-419.956 -36.511)" fill="#ffb8b8"/>
    <path id="Caminho_22518" data-name="Caminho 22518" d="M619.457,359.44a1.355,1.355,0,0,0-1.916-.8l-11.616-4.167-.512,2.9,11.579,3.184a1.362,1.362,0,0,0,2.465-1.116Z" transform="translate(-419.956 -36.511)" opacity="0.2"/>
    <path id="Caminho_22519" data-name="Caminho 22519" d="M586.269,347.686l-1.1,2.866a.608.608,0,0,1-.865.312l-2.666-1.5a1.687,1.687,0,1,1,1.216-3.148l2.977.66a.608.608,0,0,1,.436.81Z" transform="translate(-398.237 -29.199)" fill="#fe5000"/>
    <path id="Caminho_22520" data-name="Caminho 22520" d="M695.172,414.914l-4.162,1.892.546,2.057a32,32,0,0,1,.825,12.19h0l3.043.636,2.522-6.432-.883-7.315Z" transform="translate(-494.756 -89.332)" fill="#fe5000"/>
    <path id="Caminho_22521" data-name="Caminho 22521" d="M753.622,490.414a4.9,4.9,0,0,0-5.071,4.477h10.143A4.9,4.9,0,0,0,753.622,490.414Z" transform="translate(-545.04 -155.31)" fill="#3f3d56"/>
    <path id="Caminho_22522" data-name="Caminho 22522" d="M483.408,422.945c-.142-11.238-6.542-10.2-6.542-10.2s.12,3.5.177,3.607a10.443,10.443,0,0,1-11.22,15.1q-.242-.047-.466-.1a4.362,4.362,0,0,1-3.426-4.889c.844-6.777-3.354-6.658-3.354-6.658h-6.138l-3.188-2.869a.927.927,0,0,0-1.489.368l-.41,1.113s-6.054.631-5.55,6.559h1.872a3.779,3.779,0,0,0,.02.5l13.968-.113a1.529,1.529,0,0,1,1.545,1.476,1.482,1.482,0,0,1-1.532,1.488l-2.252-.075c-.694,3.09,1.009,5.171,2.885,6.48a10.487,10.487,0,0,0,6.006,1.845h6.118c7.946,0,9.333-6.685,9.333-6.685C483.929,428.129,483.408,422.945,483.408,422.945Z" transform="translate(-276.954 -87.412)" fill="#3f3d56"/>
    <circle id="Elipse_631" data-name="Elipse 631" cx="7.095" cy="7.095" r="7.095" transform="translate(201.11 338.636)" fill="#3f3d56"/>
    <circle id="Elipse_632" data-name="Elipse 632" cx="1.739" cy="1.739" r="1.739" transform="translate(206.465 343.992)" fill="#fff"/>
    <circle id="Elipse_633" data-name="Elipse 633" cx="8.167" cy="8.167" r="8.167" transform="translate(164.218 336.492)" fill="#3f3d56"/>
    <circle id="Elipse_634" data-name="Elipse 634" cx="2.002" cy="2.002" r="2.002" transform="translate(170.383 342.657)" fill="#fff"/>
    <path id="Caminho_22523" data-name="Caminho 22523" d="M679.99,378.614l-1.5-4.068a1.72,1.72,0,0,1,1.02-2.209l4.293-1.581a3.027,3.027,0,1,1,2.092,5.68Z" transform="translate(-483.725 -50.581)" fill="#3f3d56"/>
    <path id="Caminho_22524" data-name="Caminho 22524" d="M725.938,374.04a2.97,2.97,0,0,1-1.11,2.313,3.782,3.782,0,0,1-2.485-5.209,2.965,2.965,0,0,1,3.595,2.9Z" transform="translate(-521.846 -51.024)" fill="#fe5000"/>
    <ellipse id="Elipse_635" data-name="Elipse 635" cx="1.766" cy="2.144" rx="1.766" ry="2.144" transform="translate(164.155 334.095)" fill="#fe5000"/>
    <path id="Caminho_22525" data-name="Caminho 22525" d="M450.069,264.218h1.546l.736-4.01h-2.282Z" transform="translate(-260.807 79.611)" fill="#ffb8b8"/>
    <path id="Caminho_22526" data-name="Caminho 22526" d="M632.444,555.587h3.045a1.94,1.94,0,0,1,1.941,1.941v.063h-4.986Z" transform="translate(-443.577 -212.263)" fill="#2f2e41"/>
    <path id="Caminho_22527" data-name="Caminho 22527" d="M577.414,445.369l-.054,0-2.14-.156a.568.568,0,0,1-.48-.76l2.864-6.434a.441.441,0,0,0-.025-.353.435.435,0,0,0-.279-.222c-1.347-.352-4.8-1.289-7.793-2.386a3.651,3.651,0,0,1-2.4-2.018,2.849,2.849,0,0,1,.222-2.235l.02-.034,2.814.256,3.051.26,6.686,3.585a2.533,2.533,0,0,1,1.112,3.252l-3.083,6.913A.567.567,0,0,1,577.414,445.369Z" transform="translate(-386.358 -103.186)" fill="#2f2e41"/>
    <circle id="Elipse_636" data-name="Elipse 636" cx="3.098" cy="3.098" r="3.098" transform="translate(181.199 308.912)" fill="#ffb8b8"/>
    <path id="Caminho_22528" data-name="Caminho 22528" d="M443.069,267.218h1.546l.736-4.01h-2.282Z" transform="translate(-254.69 76.989)" fill="#ffb8b8"/>
    <path id="Caminho_22529" data-name="Caminho 22529" d="M625.444,558.587h3.045a1.941,1.941,0,0,1,1.941,1.941v.063h-4.986Z" transform="translate(-437.46 -214.884)" fill="#2f2e41"/>
    <path id="Caminho_22530" data-name="Caminho 22530" d="M570.414,448.369l-.054,0-2.14-.156a.568.568,0,0,1-.48-.76l2.864-6.434a.441.441,0,0,0-.025-.353.435.435,0,0,0-.279-.222c-1.347-.352-4.8-1.289-7.793-2.386a3.65,3.65,0,0,1-2.4-2.018,2.849,2.849,0,0,1,.222-2.235l.02-.034,2.814.256,3.051.259,6.686,3.586a2.533,2.533,0,0,1,1.112,3.252l-3.082,6.913A.567.567,0,0,1,570.414,448.369Z" transform="translate(-380.241 -105.808)" fill="#2f2e41"/>
    <path id="Caminho_22531" data-name="Caminho 22531" d="M568.388,337.929l-3.279-1.135s-2.059,1.582-1.07,5.505a9.713,9.713,0,0,1-.429,6.094,6.286,6.286,0,0,1-.33.7s3.658,4.414,7.063,1.135l-1.324-6.369S571.1,339.632,568.388,337.929Z" transform="translate(-383.136 -21.065)" fill="#fe5000"/>
    <path id="Caminho_22532" data-name="Caminho 22532" d="M564.931,275.8c-.441-.66-.789-1.575-.3-2.2s1.424-.528,2.158-.8a2.443,2.443,0,0,0,1.43-2.658,3.154,3.154,0,0,0-2.077-2.332,4.5,4.5,0,0,0-3.2.174,4.879,4.879,0,0,0-2.749,2.784,3.751,3.751,0,0,0,.718,3.762,5.329,5.329,0,0,0,3.988,1.305" transform="translate(-380.249 39.415)" fill="#2f2e41"/>
    <path id="Caminho_22533" data-name="Caminho 22533" d="M477.134,276.373a1.744,1.744,0,0,1-2-.146,15.651,15.651,0,0,0-1.726-1.273,4.058,4.058,0,0,0-3.62.424,33.1,33.1,0,0,1-3.258,1.924,3.294,3.294,0,0,1-3.547-.4,3.245,3.245,0,0,0,4.756,3.831c1.281-.781,1.989-2.417,3.426-2.848a4.612,4.612,0,0,1,2.453.162,5.356,5.356,0,0,0,2.453.256,1.745,1.745,0,0,0,1.467-1.73Z" transform="translate(-295.335 33.211)" fill="#2f2e41"/>
    <path id="Caminho_22534" data-name="Caminho 22534" d="M617.211,370.271a1.355,1.355,0,0,0-2-.56l-12.041-2.7-.15,2.943,11.883,1.731a1.362,1.362,0,0,0,2.308-1.411Z" transform="translate(-417.863 -47.468)" fill="#ffb8b8"/>
    <path id="Caminho_22535" data-name="Caminho 22535" d="M581.7,361.606l-.735,2.979a.607.607,0,0,1-.82.417l-2.831-1.16a1.687,1.687,0,0,1,.818-3.274l3.036.288a.608.608,0,0,1,.532.75Z" transform="translate(-394.282 -41.796)" fill="#fe5000"/>
    <circle id="Elipse_637" data-name="Elipse 637" cx="0.883" cy="0.883" r="0.883" transform="translate(197.074 323.375)" fill="#fe5000"/>
  </g>
</svg>
