<svg xmlns="http://www.w3.org/2000/svg" width="192.28" height="84.619" viewBox="0 0 192.28 84.619">
  <g id="Grupo_3887" data-name="Grupo 3887" transform="translate(0 0)">
    <path id="Caminho_22315" data-name="Caminho 22315" d="M248.553,422.146c-.661,5.179-3.092,9.918-5.685,14.482-.086.155-.174.309-.264.464H215.652c-.545-.142-1.083-.3-1.619-.464a29.462,29.462,0,0,1-8.51-4.187c-9.916-7.144-13.731-20.643-12.008-32.739,1.072-7.515,4.37-15.188,10.792-19.235a16.2,16.2,0,0,1,11.65-2.041c.1.019.2.042.308.063a12.022,12.022,0,0,1,8.053,5.662c3.062,5.439,1.239,12.177-.267,18.231s-2.315,13.3,2.041,17.764A11.112,11.112,0,0,1,239.015,405.7c.315.067.626.144.932.237a10.342,10.342,0,0,1,2.127.891C247.212,409.7,249.293,416.308,248.553,422.146Z" transform="translate(-191.349 -352.473)" fill="#f2f2f2"/>
    <path id="Caminho_22316" data-name="Caminho 22316" d="M282.249,437.66c.747.174,1.5.327,2.25.464h-4.075c-.534-.144-1.065-.3-1.591-.464q-1.736-.543-3.419-1.245a30.671,30.671,0,0,1-11.78-8.494,23.974,23.974,0,0,1-3.716-6.07,27.566,27.566,0,0,1-1.9-7.768,55.241,55.241,0,0,1,1.095-16.475,68.759,68.759,0,0,1,5.372-16.113q.442-.922.914-1.832a.358.358,0,0,1,.239-.2.412.412,0,0,1,.308.063.489.489,0,0,1,.193.645,67.966,67.966,0,0,0-5.7,15.531,59.78,59.78,0,0,0-1.7,16.166,25.794,25.794,0,0,0,4.541,14.151,28.549,28.549,0,0,0,10.688,8.77,39.227,39.227,0,0,0,8.28,2.876Z" transform="translate(-241.025 -353.505)" fill="#fff"/>
    <path id="Caminho_22317" data-name="Caminho 22317" d="M377.3,528.473h-1.2c-.135-.153-.264-.309-.392-.464a25.609,25.609,0,0,1-5.39-11.518,24.988,24.988,0,0,1,2.155-15.552,25.567,25.567,0,0,1,2.329-3.855c.315.067.626.144.932.237a24.171,24.171,0,0,0,1.153,30.688C377.018,528.164,377.157,528.32,377.3,528.473Z" transform="translate(-327.132 -443.854)" fill="#fff"/>
    <path id="Caminho_22318" data-name="Caminho 22318" d="M868.3,576.917a10.625,10.625,0,0,0,1.5,3.822c.023.041.046.081.07.122h7.113c.144-.037.286-.078.427-.122a7.776,7.776,0,0,0,2.246-1.1c2.617-1.885,3.624-5.448,3.169-8.64a7.039,7.039,0,0,0-2.848-5.076,4.277,4.277,0,0,0-3.075-.539l-.081.016a3.173,3.173,0,0,0-2.125,1.494c-.808,1.436-.327,3.214.07,4.811s.611,3.51-.539,4.688a2.933,2.933,0,0,0-3.41-3.812c-.083.018-.165.038-.246.062a2.733,2.733,0,0,0-.561.235A4.027,4.027,0,0,0,868.3,576.917Z" transform="translate(-709.902 -496.243)" fill="#f2f2f2"/>
    <path id="Caminho_22319" data-name="Caminho 22319" d="M884.647,581.016c-.2.046-.395.086-.594.122h1.076c.141-.038.281-.078.42-.122q.458-.143.9-.329a8.1,8.1,0,0,0,3.109-2.242,6.326,6.326,0,0,0,.981-1.6,7.273,7.273,0,0,0,.5-2.05,14.578,14.578,0,0,0-.289-4.348,18.138,18.138,0,0,0-1.418-4.253q-.116-.243-.241-.484a.094.094,0,0,0-.063-.054.108.108,0,0,0-.081.017.129.129,0,0,0-.051.17,17.936,17.936,0,0,1,1.5,4.1,15.781,15.781,0,0,1,.448,4.267,6.808,6.808,0,0,1-1.2,3.735,7.534,7.534,0,0,1-2.821,2.315A10.356,10.356,0,0,1,884.647,581.016Z" transform="translate(-722.029 -496.519)" fill="#fff"/>
    <path id="Caminho_22320" data-name="Caminho 22320" d="M876.437,604.983h.317c.036-.04.07-.081.1-.122a6.758,6.758,0,0,0,1.423-3.04,6.6,6.6,0,0,0-.569-4.1,6.752,6.752,0,0,0-.615-1.017c-.083.018-.165.038-.246.062a6.379,6.379,0,0,1-.3,8.1Q876.493,604.922,876.437,604.983Z" transform="translate(-716.18 -520.364)" fill="#fff"/>
    <path id="Caminho_22321" data-name="Caminho 22321" d="M517.505,450.389H495.243l-.236-6.845a2.055,2.055,0,0,1,2.3-2.11l12.955,1.586h0a7.258,7.258,0,0,1,7.238,7.253Z" transform="translate(-423.218 -401.099)" fill="#fe5000"/>
    <path id="Caminho_22322" data-name="Caminho 22322" d="M492.609,375.414H477.082a1.572,1.572,0,0,0-1.572,1.572v15.527a1.572,1.572,0,0,0,1.572,1.572h15.527a1.572,1.572,0,0,0,1.572-1.572V376.986A1.572,1.572,0,0,0,492.609,375.414Z" transform="translate(-408.245 -350.404)" fill="#ccc"/>
    <path id="Caminho_22323" data-name="Caminho 22323" d="M501.423,404.927l-7.331,1.428a1.672,1.672,0,0,1-1.959-1.32l-.563-2.894a1.672,1.672,0,0,1,1.32-1.959l7.331-1.428a1.672,1.672,0,0,1,1.959,1.32l.564,2.894A1.673,1.673,0,0,1,501.423,404.927Z" transform="translate(-420.556 -368.307)" fill="#3f3d56"/>
    <path id="Caminho_22324" data-name="Caminho 22324" d="M507.754,408.152l-5.595,1.089a.393.393,0,1,1-.15-.772l5.595-1.089a.393.393,0,0,1,.15.772Z" transform="translate(-428.353 -374.951)" fill="#fff"/>
    <path id="Caminho_22325" data-name="Caminho 22325" d="M512.01,415.108l-2.894.564a.393.393,0,0,1-.15-.772l2.894-.564a.393.393,0,1,1,.15.772Z" transform="translate(-433.696 -380.293)" fill="#fff"/>
    <path id="Caminho_22326" data-name="Caminho 22326" d="M494.181,376.986v2.064H475.51v-2.064a1.572,1.572,0,0,1,1.572-1.572h15.527A1.572,1.572,0,0,1,494.181,376.986Z" transform="translate(-408.245 -350.404)" fill="#b3b3b3"/>
    <path id="Caminho_22327" data-name="Caminho 22327" d="M631.24,363.61a2.492,2.492,0,0,0-3.524-1.476l-21.361-7.664-.941,5.336,21.293,5.855a2.505,2.505,0,0,0,4.533-2.052Z" transform="translate(-508.018 -334.317)" fill="#ffb8b8"/>
    <path id="Caminho_22328" data-name="Caminho 22328" d="M631.24,363.61a2.492,2.492,0,0,0-3.524-1.476l-21.361-7.664-.941,5.336,21.293,5.855a2.505,2.505,0,0,0,4.533-2.052Z" transform="translate(-508.018 -334.317)" opacity="0.2"/>
    <path id="Caminho_22329" data-name="Caminho 22329" d="M591.058,349.015l-2.017,5.27a1.117,1.117,0,0,1-1.591.574l-4.9-2.759a3.1,3.1,0,0,1,2.235-5.789l5.474,1.214a1.117,1.117,0,0,1,.8,1.49Z" transform="translate(-488.93 -327.89)" fill="#fe5000"/>
    <path id="Caminho_22330" data-name="Caminho 22330" d="M698.664,414.914l-7.654,3.479,1,3.783a58.849,58.849,0,0,1,1.517,22.417h0l5.6,1.169,4.639-11.829-1.624-13.453Z" transform="translate(-573.761 -380.742)" fill="#fe5000"/>
    <path id="Caminho_22331" data-name="Caminho 22331" d="M757.877,490.414c-5.029,0-9.127,3.656-9.326,8.234H767.2C767,494.07,762.906,490.414,757.877,490.414Z" transform="translate(-617.956 -438.731)" fill="#3f3d56"/>
    <path id="Caminho_22332" data-name="Caminho 22332" d="M518.339,431.527c-.262-20.666-12.031-18.764-12.031-18.764s.22,6.433.326,6.633c7.5,14.19-4.878,30.826-20.634,27.766q-.446-.087-.856-.176a8.021,8.021,0,0,1-6.3-8.991c1.552-12.464-6.167-12.243-6.167-12.243H461.388l-5.862-5.276a1.7,1.7,0,0,0-2.739.677l-.754,2.047s-11.133,1.16-10.205,12.061h3.442a6.946,6.946,0,0,0,.037.928l25.688-.209a2.812,2.812,0,0,1,2.841,2.714,2.726,2.726,0,0,1-2.817,2.736l-4.141-.138c-1.276,5.683,1.856,9.51,5.306,11.916a19.286,19.286,0,0,0,11.045,3.392h11.251c14.612,0,17.164-12.293,17.164-12.293C519.3,441.059,518.339,431.527,518.339,431.527Z" transform="translate(-382.332 -379.055)" fill="#3f3d56"/>
    <circle id="Elipse_589" data-name="Elipse 589" cx="13.047" cy="13.047" r="13.047" transform="translate(126.179 58.178)" fill="#3f3d56"/>
    <circle id="Elipse_590" data-name="Elipse 590" cx="3.198" cy="3.198" r="3.198" transform="translate(136.028 68.027)" fill="#fff"/>
    <circle id="Elipse_591" data-name="Elipse 591" cx="15.018" cy="15.018" r="15.018" transform="translate(58.336 54.235)" fill="#3f3d56"/>
    <circle id="Elipse_592" data-name="Elipse 592" cx="3.681" cy="3.681" r="3.681" transform="translate(69.673 65.572)" fill="#fff"/>
    <path id="Caminho_22333" data-name="Caminho 22333" d="M681.336,385.363l-2.754-7.48a3.163,3.163,0,0,1,1.876-4.061l7.9-2.907a5.566,5.566,0,1,1,3.847,10.446Z" transform="translate(-564.065 -346.684)" fill="#3f3d56"/>
    <path id="Caminho_22334" data-name="Caminho 22334" d="M729.232,376.527a5.462,5.462,0,0,1-2.041,4.254,6.956,6.956,0,0,1-4.569-9.579,5.452,5.452,0,0,1,6.61,5.325Z" transform="translate(-597.571 -347.073)" fill="#fe5000"/>
    <ellipse id="Elipse_593" data-name="Elipse 593" cx="3.247" cy="3.943" rx="3.247" ry="3.943" transform="translate(58.22 49.828)" fill="#fe5000"/>
    <path id="Caminho_22335" data-name="Caminho 22335" d="M450.069,267.583h2.844l1.353-7.375h-4.2Z" transform="translate(-345.679 -199.855)" fill="#ffb8b8"/>
    <path id="Caminho_22336" data-name="Caminho 22336" d="M632.444,555.587h5.6a3.569,3.569,0,0,1,3.569,3.569v.116h-9.169Z" transform="translate(-528.779 -488.787)" fill="#2f2e41"/>
    <path id="Caminho_22337" data-name="Caminho 22337" d="M586.179,457.62q-.05,0-.1,0l-3.935-.287a1.044,1.044,0,0,1-.884-1.4l5.267-11.832a.811.811,0,0,0-.046-.649.8.8,0,0,0-.513-.408c-2.477-.647-8.831-2.371-14.331-4.388-2.357-.864-3.841-2.113-4.411-3.712a5.239,5.239,0,0,1,.408-4.11l.037-.063,5.176.47,5.611.477,12.3,6.594a4.659,4.659,0,0,1,2.045,5.98L587.132,457A1.043,1.043,0,0,1,586.179,457.62Z" transform="translate(-478.489 -392.919)" fill="#2f2e41"/>
    <circle id="Elipse_594" data-name="Elipse 594" cx="5.697" cy="5.697" r="5.697" transform="translate(89.563 3.516)" fill="#ffb8b8"/>
    <path id="Caminho_22338" data-name="Caminho 22338" d="M443.069,270.583h2.844l1.353-7.375h-4.2Z" transform="translate(-340.303 -202.159)" fill="#ffb8b8"/>
    <path id="Caminho_22339" data-name="Caminho 22339" d="M625.444,558.587h5.6a3.569,3.569,0,0,1,3.569,3.569v.116h-9.169Z" transform="translate(-523.403 -491.092)" fill="#2f2e41"/>
    <path id="Caminho_22340" data-name="Caminho 22340" d="M579.179,460.62c-.033,0-.066,0-.1,0l-3.935-.287a1.044,1.044,0,0,1-.884-1.4l5.267-11.832a.811.811,0,0,0-.045-.649.8.8,0,0,0-.513-.408c-2.476-.647-8.83-2.371-14.331-4.388-2.357-.864-3.841-2.113-4.411-3.712a5.239,5.239,0,0,1,.408-4.11l.037-.063,5.176.47,5.611.477,12.3,6.594a4.659,4.659,0,0,1,2.045,5.98L580.132,460A1.043,1.043,0,0,1,579.179,460.62Z" transform="translate(-473.112 -395.223)" fill="#2f2e41"/>
    <path id="Caminho_22341" data-name="Caminho 22341" d="M572.674,338.881l-6.03-2.087s-3.786,2.909-1.967,10.124a17.862,17.862,0,0,1-.789,11.207,11.535,11.535,0,0,1-.607,1.283s6.726,8.118,12.989,2.087l-2.435-11.713S577.66,342.013,572.674,338.881Z" transform="translate(-475.657 -320.742)" fill="#fe5000"/>
    <path id="Caminho_22342" data-name="Caminho 22342" d="M569.087,282.689c-.811-1.214-1.451-2.9-.558-4.051s2.619-.972,3.969-1.476a4.493,4.493,0,0,0,2.63-4.888,5.8,5.8,0,0,0-3.819-4.288,8.268,8.268,0,0,0-5.876.32,8.973,8.973,0,0,0-5.056,5.12,6.9,6.9,0,0,0,1.32,6.919c1.824,1.92,4.687,2.432,7.335,2.4" transform="translate(-473.12 -267.585)" fill="#2f2e41"/>
    <path id="Caminho_22343" data-name="Caminho 22343" d="M489.155,277.789c-1.022.832-2.58.462-3.677-.268a28.8,28.8,0,0,0-3.173-2.342c-2.092-1.009-4.621-.338-6.657.779s-3.841,2.662-5.991,3.539-4.895.92-6.523-.736a5.968,5.968,0,0,0,8.747,7.044c2.356-1.435,3.658-4.445,6.3-5.237a8.481,8.481,0,0,1,4.511.3,9.849,9.849,0,0,0,4.511.47c1.492-.326,2.887-1.666,2.7-3.181Z" transform="translate(-398.487 -273.038)" fill="#2f2e41"/>
    <path id="Caminho_22344" data-name="Caminho 22344" d="M629.117,373.008a2.492,2.492,0,0,0-3.679-1.03l-22.143-4.97-.275,5.412,21.853,3.184a2.505,2.505,0,0,0,4.245-2.6Z" transform="translate(-506.179 -343.948)" fill="#ffb8b8"/>
    <path id="Caminho_22345" data-name="Caminho 22345" d="M586.451,362.52,585.1,368a1.117,1.117,0,0,1-1.508.766l-5.205-2.133a3.1,3.1,0,0,1,1.5-6.021l5.582.529a1.117,1.117,0,0,1,.979,1.38Z" transform="translate(-485.453 -338.963)" fill="#fe5000"/>
    <circle id="Elipse_595" data-name="Elipse 595" cx="1.624" cy="1.624" r="1.624" transform="translate(118.757 30.113)" fill="#fe5000"/>
    <path id="Caminho_22346" data-name="Caminho 22346" d="M377.78,630.646a.233.233,0,0,1-.232.232H185.732a.232.232,0,0,1,0-.464H377.548A.233.233,0,0,1,377.78,630.646Z" transform="translate(-185.5 -546.259)" fill="#3f3d56"/>
  </g>
</svg>
