<svg xmlns="http://www.w3.org/2000/svg" width="20.027" height="59.084" viewBox="0 0 20.027 59.084">
  <g id="Grupo_3901" data-name="Grupo 3901" transform="translate(-144.749 -484.555)">
    <path id="Caminho_22563" data-name="Caminho 22563" d="M593.668,277.905c.477-.242,1.1,0,1.665.057.735.071,1.464-.193,2.2-.173a2.764,2.764,0,0,1,1.808.747,2.209,2.209,0,0,1,.666,1.516,1.764,1.764,0,0,1-.232.974,2.589,2.589,0,0,1-1.992,1.053,3.729,3.729,0,0,1-2.327-.611,12.165,12.165,0,0,1-1.394-1.3c-.33-.31-1.2-.7-1.205-1.1A2.117,2.117,0,0,1,593.668,277.905Z" transform="translate(-441.24 214.345)" fill="#fe5000" opacity="0.1"/>
    <path id="Caminho_22458" data-name="Caminho 22458" d="M562.313,718.135a.56.56,0,0,1-.418-.253c-.418-.632-1.526-2.435-.748-2.684a3.075,3.075,0,0,1,.377-.1,3.838,3.838,0,0,1,3.72,1.454,3.51,3.51,0,0,1,.3.465.483.483,0,0,1-.289.69A8.975,8.975,0,0,1,562.313,718.135Z" transform="translate(-412.344 -180.722)" fill="#ffca7c"/>
    <path id="Caminho_22459" data-name="Caminho 22459" d="M526.77,656.508l4.247-.768h6.36l-.909,1.4h-8.833Z" transform="translate(-377.569 -119.194)" fill="#33323d"/>
    <path id="Caminho_22460" data-name="Caminho 22460" d="M593.668,277.905c.477-.242,1.1,0,1.665.057.735.071,1.464-.193,2.2-.173a2.764,2.764,0,0,1,1.808.747,2.209,2.209,0,0,1,.666,1.516,1.764,1.764,0,0,1-.232.974,2.589,2.589,0,0,1-1.992,1.053,3.729,3.729,0,0,1-2.327-.611,12.165,12.165,0,0,1-1.394-1.3c-.33-.31-1.2-.7-1.205-1.1A2.117,2.117,0,0,1,593.668,277.905Z" transform="translate(-441.24 214.345)" fill="#fe5000"/>
    <path id="Caminho_22462" data-name="Caminho 22462" d="M618.946,701.228l-.066,1.351a18.149,18.149,0,0,1,1.917-.037,1.4,1.4,0,0,0-.042-.622,4.7,4.7,0,0,1-.078-1.208c.008-.111-1.187-.225-1.307-.231-.147-.006-.3-.026-.37.127A1.838,1.838,0,0,0,618.946,701.228Z" transform="translate(-464.75 -167.561)" fill="#fbbebe"/>
    <path id="Caminho_22463" data-name="Caminho 22463" d="M602.645,705.738l-.065,1.351a18.129,18.129,0,0,1,1.916-.037,1.4,1.4,0,0,0-.042-.622,4.739,4.739,0,0,1-.077-1.208c.007-.112-1.187-.225-1.307-.231-.148-.006-.3-.026-.369.127A1.816,1.816,0,0,0,602.645,705.738Z" transform="translate(-450.023 -171.636)" fill="#fbbebe"/>
    <path id="Caminho_22464" data-name="Caminho 22464" d="M614.694,707.607a.715.715,0,0,0-.245.152l-.482.4c-.162.136-.375.28-.569.193a1.309,1.309,0,0,1-.226-.178.222.222,0,0,0-.264-.03.272.272,0,0,0-.074.167,12.876,12.876,0,0,0-.209,2.6,1.536,1.536,0,0,0,.47.1.081.081,0,0,0,.052-.01c.028-.023.013-.068.009-.1-.014-.124.16-.2.273-.144a.538.538,0,0,1,.222.289.29.29,0,0,0,.083.124.278.278,0,0,0,.115.042,4.138,4.138,0,0,0,.664.061q1.544.053,3.087,0a1.024,1.024,0,0,0,.317-.044.6.6,0,0,0,.369-.467.831.831,0,0,0-.147-.591,1.015,1.015,0,0,0-.339-.311,1.985,1.985,0,0,0-.319-.135l-.482-.174a1.879,1.879,0,0,1-1.348-1.057C615.466,708.187,615.181,707.464,614.694,707.607Z" transform="translate(-459.095 -173.986)" fill="#fe5000"/>
    <path id="Caminho_22466" data-name="Caminho 22466" d="M624.237,479.594q0,.413-.017.827a41.656,41.656,0,0,1-.453,5.043c-.058.375-.121.75-.212,1.117a11.805,11.805,0,0,0-.386,1.578,19.037,19.037,0,0,1-.048,2.324c-.09.386-.277.746-.386,1.128a6.038,6.038,0,0,0-.152.694q-.146.81-.289,1.618c-.011.055-.02.11-.03.165a6.644,6.644,0,0,1-.633,1.824,5.771,5.771,0,0,0-.386,1.117l-.515,1.918a5.847,5.847,0,0,0-.289,2.643,6.138,6.138,0,0,1-1.046-.156,5.9,5.9,0,0,1-1.267-.465,42.7,42.7,0,0,1,.041-4.472,22.832,22.832,0,0,1,.244-2.823c.173-1.016.409-1.986.616-3a20.921,20.921,0,0,0,.591-4.579,12.67,12.67,0,0,1,.887-5.83,1.332,1.332,0,0,1,.4-.546,1.388,1.388,0,0,1,.579-.193,10.945,10.945,0,0,1,2.1-.15A1.469,1.469,0,0,1,624.237,479.594Z" transform="translate(-464.029 32.208)" fill="#33323d"/>
    <path id="Caminho_22467" data-name="Caminho 22467" d="M624.219,479.612c0,.275-2.088.065-2.1.34-2.565-.3-1.363.3-1.476.379-.243.171.924-.173.681,0-.211.15-.539.73-.757.868-.508.333,1.187,1.358.81,1.833a2.207,2.207,0,0,0-.377,1.563c.045.546.2,1.078.289,1.621a6.064,6.064,0,0,1-.319,3.057,17.524,17.524,0,0,1-.809,1.685c-.307.613-.874,1.221-.807,1.9a31.545,31.545,0,0,1-.185,4.631,5.417,5.417,0,0,0,.137,1.761c.062.217.148.427.193.648a3.089,3.089,0,0,1-.127,1.551,5.9,5.9,0,0,1-1.267-.465,42.67,42.67,0,0,1,.042-4.472,22.83,22.83,0,0,1,.244-2.823c.173-1.016.409-1.986.616-3a20.914,20.914,0,0,0,.591-4.579,12.67,12.67,0,0,1,.887-5.83,1.333,1.333,0,0,1,.4-.546,1.387,1.387,0,0,1,.579-.193,10.939,10.939,0,0,1,2.1-.151A1.469,1.469,0,0,1,624.219,479.612Z" transform="translate(-464.011 32.19)" opacity="0.1"/>
    <path id="Caminho_22468" data-name="Caminho 22468" d="M595.7,450.84c0,.49.274,1.575-.1,1.889-.25.211-.559.34-.827.528-.243.171-.451.386-.693.563-.211.15-.447.262-.664.4-.509.333-.732.938-1.111,1.412a2.212,2.212,0,0,0-.376,1.563c.045.546.2,1.078.289,1.621a6.079,6.079,0,0,1-.319,3.057,17.76,17.76,0,0,1-.81,1.685c-.307.613-.875,1.221-.807,1.9a31.688,31.688,0,0,1-.185,4.631,5.419,5.419,0,0,0,.137,1.761c.062.217.147.427.193.648a3.453,3.453,0,0,1-.214,1.825,8.374,8.374,0,0,0-2.059-.187,9.392,9.392,0,0,1-1.808.148,36.248,36.248,0,0,1,.223-4.871c.029-.331.06-.662.09-.994.116-1.269.231-2.538.3-3.812a4.307,4.307,0,0,1-.006-.972q.283-.974.565-1.938a6.4,6.4,0,0,0,.226-.985,6.51,6.51,0,0,0-.193-2.066q-.289-1.4-.579-2.8c-.064-.31-.128-.62-.216-.926a5.983,5.983,0,0,1-.163-.616,7.9,7.9,0,0,1-.054-.882c-.029-.508-.148-1.006-.185-1.514a3.1,3.1,0,0,1,.023-.731,1.848,1.848,0,0,1,.273-.737,22.56,22.56,0,0,1,4.4-1.254,6.173,6.173,0,0,1,1.061-.124,7.1,7.1,0,0,1,1.21.134,6.031,6.031,0,0,1,1.64.444,2.426,2.426,0,0,1,.666.463c.258.26.1-.34.179.017C595.822,450.252,595.7,450.716,595.7,450.84Z" transform="translate(-435.335 59.59)" fill="#33323d"/>
    <path id="Caminho_22469" data-name="Caminho 22469" d="M598.391,712.109a.726.726,0,0,0-.245.153l-.482.4c-.163.136-.376.28-.569.193a1.274,1.274,0,0,1-.226-.177.221.221,0,0,0-.264-.03.271.271,0,0,0-.074.167,12.73,12.73,0,0,0-.209,2.6,1.535,1.535,0,0,0,.469.1.079.079,0,0,0,.052-.01c.029-.023.013-.068.01-.1-.014-.125.16-.2.272-.144a.539.539,0,0,1,.222.289.3.3,0,0,0,.083.124.278.278,0,0,0,.115.042,4.128,4.128,0,0,0,.665.061c1.029.036,2.06.037,3.087,0a1.036,1.036,0,0,0,.317-.044.6.6,0,0,0,.368-.468.826.826,0,0,0-.147-.59,1.022,1.022,0,0,0-.338-.311,2.03,2.03,0,0,0-.32-.135l-.482-.174a2.531,2.531,0,0,1-.979-.526,2.5,2.5,0,0,1-.37-.533C599.162,712.69,598.878,711.967,598.391,712.109Z" transform="translate(-444.365 -178.054)" fill="#fe5000"/>
    <path id="Caminho_22470" data-name="Caminho 22470" d="M609.6,255.677a.964.964,0,0,1-.2.413,1.748,1.748,0,0,1-.777.71,1.564,1.564,0,0,1-.579.052,7.61,7.61,0,0,1-4.566-1.818,2.512,2.512,0,0,0,1.006-1.847,6.062,6.062,0,0,0-.1-1.673c-.028-.163-.057-.325-.086-.482-.054-.3-.193-.524.144-.606a3.117,3.117,0,0,1,.884,0,3.006,3.006,0,0,1,1.665.52,1.124,1.124,0,0,1,.321.35c.206.386.039.84-.01,1.283a1.764,1.764,0,0,0-.007.3,1.865,1.865,0,0,0,.747,1.228c.379.314.817.555,1.187.878A.829.829,0,0,1,609.6,255.677Z" transform="translate(-450.836 239.098)" fill="#fbbebe"/>
    <path id="Caminho_22471" data-name="Caminho 22471" d="M614.315,252.556a2.8,2.8,0,0,1-.64.073,2.853,2.853,0,0,1-2.279-1.135c-.028-.163-.057-.325-.086-.482-.054-.3-.193-.524.144-.606a3.118,3.118,0,0,1,.884,0,3.005,3.005,0,0,1,1.665.52,1.124,1.124,0,0,1,.321.35C614.531,251.658,614.364,252.112,614.315,252.556Z" transform="translate(-457.844 239.116)" opacity="0.1"/>
    <circle id="Elipse_627" data-name="Elipse 627" cx="2.859" cy="2.859" r="2.859" transform="translate(152.974 485.893)" fill="#fbbebe"/>
    <path id="Caminho_22472" data-name="Caminho 22472" d="M596.329,450.346c-.017.039-.153.7-.175.733a10.19,10.19,0,0,0-2.508-.193,3.944,3.944,0,0,0-.73.061c-.2.041-.4.107-.6.139-1.1.17-2.145-.692-3.257-.607a4.032,4.032,0,0,0-1.075.289c-.386.147-.772.259-1.148.386a1.851,1.851,0,0,1,.273-.737,22.563,22.563,0,0,1,4.4-1.254,6.176,6.176,0,0,1,1.061-.124,7.1,7.1,0,0,1,1.21.134,6.029,6.029,0,0,1,1.64.444,2.422,2.422,0,0,1,.666.463C596.329,450.346,596.251,449.989,596.329,450.346Z" transform="translate(-435.792 59.617)" opacity="0.1"/>
    <path id="Caminho_22473" data-name="Caminho 22473" d="M554.16,281.206a1.667,1.667,0,0,0-.453-.738q-.552-.617-1.14-1.2a1.635,1.635,0,0,0-.444-.346.579.579,0,0,0-.543,0,2.082,2.082,0,0,0-.342.4c-.257.281-.7.347-.919.661a1.757,1.757,0,0,1-.165.25.734.734,0,0,1-.323.159l-1.362.408a.632.632,0,0,0-.414.258.834.834,0,0,0-.061.248,2.732,2.732,0,0,1-1.129,1.447,1.217,1.217,0,0,0-.4.5,1.185,1.185,0,0,0,.01.63,4.009,4.009,0,0,0,.579,1.506,9.591,9.591,0,0,1,.642.882,3.022,3.022,0,0,1,.266.974c.1.634.147,1.273.2,1.911a8.691,8.691,0,0,0,.143,1.737c.2.661.908,1.037,1.222,1.652a3.085,3.085,0,0,1,.242.812l.3,1.53a3.38,3.38,0,0,1,.09.707,9.723,9.723,0,0,0-.206,1.665c.51-.193,1-.325,1.512-.517a3.915,3.915,0,0,1,1.077-.294c1.112-.083,2.154.778,3.256.608.2-.031.4-.1.6-.138a4.02,4.02,0,0,1,.73-.063,13.835,13.835,0,0,1,2.895.261,1.713,1.713,0,0,0,.177-1.093,8.839,8.839,0,0,0-.262-1.1,8.12,8.12,0,0,1-.214-2.934,6.442,6.442,0,0,0,.067-.746c0-.932-.565-1.805-.513-2.736.051-.916,1.1-1.428,1.529-2.238a.972.972,0,0,0,.144-.538,2.049,2.049,0,0,0-.221-.548,8.129,8.129,0,0,1-.232-1.428c-.04-.165-.1-.324-.137-.49-.1-.457-.009-.944-.125-1.4a2.641,2.641,0,0,0-.525-.944,4.048,4.048,0,0,0-1.372-1.2,1.98,1.98,0,0,0-1.771-.032.675.675,0,0,0-.218.173.86.86,0,0,0-.12.282,8.745,8.745,0,0,1-.792,1.846.857.857,0,0,1-.7-.209C554.545,281.617,554.211,281.453,554.16,281.206Z" transform="translate(-399.281 213.383)" fill="#fe5000"/>
    <path id="Caminho_22474" data-name="Caminho 22474" d="M597.284,204.29a.927.927,0,0,0,.069-.405.638.638,0,0,1,.108-.392c.112-.136.313-.173.42-.311.123-.157.081-.38.118-.579a.727.727,0,0,1,.675-.579,3.257,3.257,0,0,1,.7.153,2.534,2.534,0,0,0,.928-.048.988.988,0,0,0,.625-.271.944.944,0,0,0,.166-.409.965.965,0,0,0-.029-.691c-.119-.2-.37-.3-.5-.5-.115-.173-.124-.4-.241-.572a.906.906,0,0,0-.881-.275,2.9,2.9,0,0,1-.965.074c-.349-.075-.695-.35-1.024-.212-.242.1-.344.381-.492.6a1.3,1.3,0,0,1-.508.436c-.315.151-.683.173-.985.348a1.1,1.1,0,0,0-.523.756.317.317,0,0,0,.006.173.8.8,0,0,0,.076.122.654.654,0,0,1-.077.665,1.833,1.833,0,0,0-.322.622,1.025,1.025,0,0,0,.172.671,4.83,4.83,0,0,1,.356.609c.1.252.123.531.226.782a1.266,1.266,0,0,0,.945.751.289.289,0,0,0,.231-.035.3.3,0,0,0,.086-.164,1.862,1.862,0,0,0,.055-.325,1.862,1.862,0,0,1,.1-.666C596.912,204.365,597.155,204.534,597.284,204.29Z" transform="translate(-442.828 285.32)" fill="#33323d"/>
    <path id="Caminho_22475" data-name="Caminho 22475" d="M610.929,202.777c-.12-.2-.37-.3-.5-.5-.115-.173-.125-.4-.241-.572a.625.625,0,0,0-.361-.244h0c.117.172.125.4.241.572.131.2.381.3.5.5a.96.96,0,0,1,.029.691.948.948,0,0,1-.165.409,1.009,1.009,0,0,1-.626.271,2.555,2.555,0,0,1-.928.048,3.172,3.172,0,0,0-.7-.153.725.725,0,0,0-.67.574c-.037.193,0,.419-.118.579-.108.138-.309.175-.42.31a.645.645,0,0,0-.109.393.92.92,0,0,1-.068.4c-.13.245-.373.075-.5.325a1.864,1.864,0,0,0-.1.666,1.868,1.868,0,0,1-.055.326.3.3,0,0,1-.085.164.289.289,0,0,1-.231.035,1.221,1.221,0,0,1-.289-.089,1.254,1.254,0,0,0,.651.331.289.289,0,0,0,.231-.035.3.3,0,0,0,.086-.164,1.868,1.868,0,0,0,.055-.325,1.862,1.862,0,0,1,.1-.666c.123-.25.367-.081.5-.325a.926.926,0,0,0,.069-.405.639.639,0,0,1,.108-.392c.112-.136.313-.173.42-.311.122-.157.081-.38.118-.579a.725.725,0,0,1,.675-.573,3.2,3.2,0,0,1,.7.152,2.533,2.533,0,0,0,.928-.048.987.987,0,0,0,.625-.271.944.944,0,0,0,.166-.409A1,1,0,0,0,610.929,202.777Z" transform="translate(-452.697 283.309)" opacity="0.1"/>
    <path id="Caminho_22476" data-name="Caminho 22476" d="M568.95,752.553a1.537,1.537,0,1,1-3.04,0v-.013a1.655,1.655,0,0,1,1.52-1.749,1.465,1.465,0,0,1,1.246.754A1.937,1.937,0,0,1,568.95,752.553Z" transform="translate(-416.891 -213.02)" fill="#33323d"/>
    <path id="Caminho_22477" data-name="Caminho 22477" d="M682.468,744.589c0,1.875-.97,3.4-2.165,3.4s-2.163-1.521-2.163-3.4a4.336,4.336,0,0,1,.793-2.627,1.762,1.762,0,0,1,1.37-.772,1.446,1.446,0,0,1,.214.015,1.845,1.845,0,0,1,1.141.733,2.073,2.073,0,0,1,.125.173A4.489,4.489,0,0,1,682.468,744.589Z" transform="translate(-518.292 -204.346)" fill="#33323d"/>
    <path id="Caminho_22478" data-name="Caminho 22478" d="M616.858,373.039l-1.892.189-.243-2.022-.016-.132-.343-2.85-.016-.132-1.738-14.417-.038-.307-1.036-8.605-.025-.205-.108-.9-.072-.6h1.515l.082.618.013.1.038.277,1.3,9.712.035.261,1.853,13.846.406,3.034Z" transform="translate(-453.971 163.318)" fill="#33323d"/>
    <path id="Caminho_22479" data-name="Caminho 22479" d="M687.737,741.24a1.454,1.454,0,0,1,.214.015l-.054.037a1.215,1.215,0,0,0-.482,1.124l.307,2.918a.374.374,0,0,1,0,.045.44.44,0,0,1-.868.083c-.126-.669-.366-2.035-.474-3.269-.006-.066-.01-.127-.01-.186A1.758,1.758,0,0,1,687.737,741.24Z" transform="translate(-525.728 -204.391)" opacity="0.1"/>
    <path id="Caminho_22480" data-name="Caminho 22480" d="M705.025,749.173l-.067-.019c-.02-.053-.039-.105-.059-.153A2.063,2.063,0,0,1,705.025,749.173Z" transform="translate(-542.47 -211.402)" opacity="0.1"/>
    <path id="Caminho_22481" data-name="Caminho 22481" d="M686.339,732.854a1.319,1.319,0,0,0-1.387,1.615c.109,1.234.348,2.6.474,3.268a.44.44,0,0,0,.5.353h0a.44.44,0,0,0,.371-.482l-.307-2.918a1.214,1.214,0,0,1,.482-1.125c.364-.256.849-.271,1.254.851l.278.076S688.359,732.652,686.339,732.854Z" transform="translate(-524.437 -196.8)" fill="#504f60"/>
    <path id="Caminho_22482" data-name="Caminho 22482" d="M656.249,442.592a1.238,1.238,0,0,1-.232.023h-.542a1.246,1.246,0,0,1-1.234-1.108l-.83-7.552a1.245,1.245,0,0,1,1.5-1.351Z" transform="translate(-495.943 74.492)" opacity="0.1"/>
    <path id="Caminho_22483" data-name="Caminho 22483" d="M657.256,445.285a1.166,1.166,0,0,1-.266.03h-.542a1.231,1.231,0,0,1-.893-.386l-.038-.308-1.036-8.6a1.237,1.237,0,0,1,1.442-.709l1.3,9.713Z" transform="translate(-496.915 72.059)" opacity="0.1"/>
    <path id="Caminho_22484" data-name="Caminho 22484" d="M653.408,435.282c.2,1.817.621,5.658.83,7.554a1.241,1.241,0,0,0,1.234,1.106h.541a1.219,1.219,0,0,0,1.172-.833,1.066,1.066,0,0,0,.051-.322c0-.579-.621-5.823-.814-7.44a1.224,1.224,0,0,0-.457-.821,4.376,4.376,0,0,0-.821-.514A1.238,1.238,0,0,0,653.408,435.282Z" transform="translate(-495.94 73.299)" fill="#ffca7c"/>
    <path id="Caminho_22485" data-name="Caminho 22485" d="M568.675,751.544l-.407-.017a1.892,1.892,0,0,0-1.035.254l-1.273.733c-.016.009-.034.018-.049.025a1.655,1.655,0,0,1,1.52-1.749A1.466,1.466,0,0,1,568.675,751.544Z" transform="translate(-416.891 -213.02)" opacity="0.1"/>
    <path id="Caminho_22486" data-name="Caminho 22486" d="M644.969,604.653l-1.85.166-.016-.132-.344-2.85,1.8-.217Z" transform="translate(-482.368 -70.296)" opacity="0.1"/>
    <path id="Caminho_22487" data-name="Caminho 22487" d="M568.777,685.755c.3,4.342-2.743,4.262-2.743,4.262l-6.612-.284a1.91,1.91,0,0,0-1.036.254l-1.274.734a.663.663,0,0,1-.743-.055h0a.664.664,0,0,1-.119-.918l.538-.718a1.125,1.125,0,0,1,.965-.448l6.919.395c2.8.05,3.747-6.209,3.747-6.209h0l1.82-.219.405,3.034-1.865.167Z" transform="translate(-408.043 -151.364)" fill="#504f60"/>
    <path id="Caminho_22488" data-name="Caminho 22488" d="M612.927,343.678l-1.524-.021-.072-.6h1.515Z" transform="translate(-453.971 163.318)" opacity="0.1"/>
    <path id="Caminho_22489" data-name="Caminho 22489" d="M588.782,419.608l12.792.32a.4.4,0,0,1,.386.4h0a.4.4,0,0,1-.405.4l-12.791-.178a.4.4,0,0,1-.394-.4v-.143a.4.4,0,0,1,.412-.4Z" transform="translate(-437.184 86.209)" fill="#33323d"/>
    <path id="Caminho_22490" data-name="Caminho 22490" d="M580.92,404.775a3.362,3.362,0,0,1,1.312.328,1.353,1.353,0,0,1,.512,1.061,4,4,0,0,1-.193,1.2c-.033.123-.1.273-.226.277s-.193-.127-.3-.193c-.222-.135-.535.065-.759-.067a1.244,1.244,0,0,1-.176-.159.579.579,0,0,0-.649-.077,1.042,1.042,0,0,0-1.054-1.234.979.979,0,0,1-.511-.033c-.244-.133-.224-.5-.1-.745.185-.344.326-.682.747-.682A7.25,7.25,0,0,1,580.92,404.775Z" transform="translate(-428.438 99.905)" fill="#fbbebe"/>
    <path id="Caminho_22491" data-name="Caminho 22491" d="M692.036,402.553l-.006.938a2.062,2.062,0,0,0,.175,1.031.525.525,0,0,0,.432.3c.069,0,.137-.023.207-.02.2.008.386.22.574.15.064-.024.115-.078.18-.1.1-.029.207.025.3,0s.155-.142.193-.24a2.321,2.321,0,0,0,.246-1.478,2.28,2.28,0,0,0-.329-.613l-.625-.925a.317.317,0,0,0-.1-.109.276.276,0,0,0-.14-.025,1.984,1.984,0,0,0-.879.289C691.989,401.894,692.038,402.284,692.036,402.553Z" transform="translate(-530.842 102.606)" fill="#fbbebe"/>
    <path id="Caminho_22492" data-name="Caminho 22492" d="M677.033,348.206a2.646,2.646,0,0,0,.176.6,2.3,2.3,0,0,1,.34.646c.042.289-.148.623.033.852.073.1.193.142.27.234.185.229.009.565.036.858.024.267.224.489.279.753s-.038.59.13.811a.839.839,0,0,0-.86-.27,1.948,1.948,0,0,0-1.28.829,2.53,2.53,0,0,0-.12-1.135,2.754,2.754,0,0,1-.279-.987,4.323,4.323,0,0,0,.069-.607,1.414,1.414,0,0,0-.513-.785,1.63,1.63,0,0,1-.564-.977,1.517,1.517,0,0,1,.378-.978,1.849,1.849,0,0,1,.638-.579c.169-.083.68-.43.792-.386C676.8,347.174,676.98,347.986,677.033,348.206Z" transform="translate(-515.226 151.74)" fill="#fe5000"/>
    <path id="Caminho_22493" data-name="Caminho 22493" d="M524.574,328.65a1.1,1.1,0,0,0-.613.508,4.248,4.248,0,0,0-.321.749,9.892,9.892,0,0,1-.753,1.59,5.322,5.322,0,0,0-.6,1.182,5.95,5.95,0,0,1-.3,1.121,4.629,4.629,0,0,0-.28.494,1.612,1.612,0,0,0-.04.729l.063.652a1.676,1.676,0,0,0,.143.621,1.715,1.715,0,0,0,.553.541l.981.7a2.556,2.556,0,0,0,.615.354,4.443,4.443,0,0,0,2-.17,6.043,6.043,0,0,1,1.4.042,1.91,1.91,0,0,1,.157-1.114c.183-.334.742-.772,1.112-.681-.367-.31-.974-.137-1.38-.395-.163-.1-.3-.24-.462-.349-.5-.342-1.228-.4-1.553-.916a.2.2,0,0,1-.039-.1c-.006-.076.059-.137.115-.193a2.337,2.337,0,0,0,.661-1.5,6.165,6.165,0,0,0-.14-1.664,4.824,4.824,0,0,0-.374-1.289A1.774,1.774,0,0,0,524.574,328.65Z" transform="translate(-376.897 168.391)" fill="#fe5000"/>
    <path id="Caminho_22564" data-name="Caminho 22564" d="M614.694,707.607a.715.715,0,0,0-.245.152l-.482.4c-.162.136-.375.28-.569.193a1.309,1.309,0,0,1-.226-.178.222.222,0,0,0-.264-.03.272.272,0,0,0-.074.167,12.876,12.876,0,0,0-.209,2.6,1.536,1.536,0,0,0,.47.1.081.081,0,0,0,.052-.01c.028-.023.013-.068.009-.1-.014-.124.16-.2.273-.144a.538.538,0,0,1,.222.289.29.29,0,0,0,.083.124.278.278,0,0,0,.115.042,4.138,4.138,0,0,0,.664.061q1.544.053,3.087,0a1.024,1.024,0,0,0,.317-.044.6.6,0,0,0,.369-.467.831.831,0,0,0-.147-.591,1.015,1.015,0,0,0-.339-.311,1.985,1.985,0,0,0-.319-.135l-.482-.174a1.879,1.879,0,0,1-1.348-1.057C615.466,708.187,615.181,707.464,614.694,707.607Z" transform="translate(-459.095 -173.986)" fill="#fe5000" opacity="0.1"/>
  </g>
</svg>
