<svg xmlns="http://www.w3.org/2000/svg" width="46.282" height="46.079" viewBox="0 0 46.282 46.079">
  <path id="Caminho_22569" data-name="Caminho 22569" d="M592.446,253.113H568.13c-.839,0-1.52-.921-1.52-2.057s.68-2.057,1.52-2.057h24.316c.839,0,1.52.921,1.52,2.057S593.285,253.113,592.446,253.113Z" transform="translate(-557.02 -212.865)" fill="#ffca7c"/>
  <path id="Caminho_22588" data-name="Caminho 22588" d="M711.8,353.079H679.7a7.084,7.084,0,0,1-7.092-7.06V314.061A7.084,7.084,0,0,1,679.7,307h32.1a7.084,7.084,0,0,1,7.092,7.061v31.958A7.084,7.084,0,0,1,711.8,353.079Zm-32.1-44.592a5.593,5.593,0,0,0-5.6,5.574v31.958a5.593,5.593,0,0,0,5.6,5.574h32.1a5.593,5.593,0,0,0,5.6-5.574V314.061a5.593,5.593,0,0,0-5.6-5.574Z" transform="translate(-672.61 -307)" fill="#fe5000"/>
  <g id="Retângulo_629" data-name="Retângulo 629" transform="translate(4.431 4.606)" fill="#fff" stroke="#fe5000" stroke-width="0.5">
    <rect width="37.67" height="26.591" rx="2" stroke="none"/>
    <rect x="0.25" y="0.25" width="37.17" height="26.091" rx="1.75" fill="none"/>
  </g>
  <g id="Grupo_3913" data-name="Grupo 3913" transform="translate(16.378 8.567)">
    <path id="Caminho_22589" data-name="Caminho 22589" d="M699.41,330.1a4.8,4.8,0,1,1,4.8-4.8A4.8,4.8,0,0,1,699.41,330.1Z" transform="translate(-692.521 -320.5)" fill="#fe5000"/>
    <path id="Caminho_22590" data-name="Caminho 22590" d="M702.373,348.5h-9.584a1.994,1.994,0,0,1-2.1-1.867c0-3.381,3.09-6.133,6.889-6.133s6.889,2.751,6.889,6.133A1.994,1.994,0,0,1,702.373,348.5Z" transform="translate(-690.693 -329.834)" fill="#fe5000"/>
  </g>
</svg>
