<svg xmlns="http://www.w3.org/2000/svg" width="37.697" height="38.036" viewBox="0 0 37.697 38.036">
  <g id="Grupo_3894" data-name="Grupo 3894" transform="translate(-6400 -887.269)">
    <ellipse id="Elipse_469" data-name="Elipse 469" cx="16.509" cy="16.509" rx="16.509" ry="16.509" transform="translate(6400 892.288)" fill="#fe5000"/>
    <g id="Elipse_472" data-name="Elipse 472" transform="translate(6402.51 894.798)" fill="#fe5000" stroke="#fff" stroke-width="1">
      <ellipse cx="14.143" cy="14.143" rx="14.143" ry="14.143" stroke="none"/>
      <ellipse cx="14.143" cy="14.143" rx="13.643" ry="13.643" fill="none"/>
    </g>
    <g id="Elipse_596" data-name="Elipse 596" transform="translate(6406.274 898.563)" fill="#fe5000" stroke="#fff" stroke-width="1">
      <ellipse cx="10.378" cy="10.378" rx="10.378" ry="10.378" stroke="none"/>
      <ellipse cx="10.378" cy="10.378" rx="9.878" ry="9.878" fill="none"/>
    </g>
    <g id="Elipse_597" data-name="Elipse 597" transform="translate(6410.039 902.327)" fill="#fe5000" stroke="#fff" stroke-width="1">
      <ellipse cx="6.614" cy="6.614" rx="6.614" ry="6.614" stroke="none"/>
      <ellipse cx="6.614" cy="6.614" rx="6.114" ry="6.114" fill="none"/>
    </g>
    <line id="Linha_713" data-name="Linha 713" y1="13.709" x2="12.916" transform="translate(6416.574 895.088)" fill="none" stroke="#fff" stroke-linecap="round" stroke-width="1"/>
    <path id="Interseção_69" data-name="Interseção 69" d="M0,2.172A4.213,4.213,0,0,1,3.729,0,4.213,4.213,0,0,1,7.457,2.172,4.213,4.213,0,0,1,3.729,4.344,4.213,4.213,0,0,1,0,2.172Z" transform="translate(6412.924 906.769)" fill="#fff"/>
    <g id="Grupo_3892" data-name="Grupo 3892" transform="translate(6415.591 907.879)">
      <path id="Path" d="M1.061,2.123A1.061,1.061,0,1,1,2.123,1.061,1.063,1.063,0,0,1,1.061,2.123Zm0-1.737a.675.675,0,1,0,.675.675A.676.676,0,0,0,1.061.386Z" transform="translate(0)" fill="#fff"/>
      <path id="Shape" d="M.741,1.481A.741.741,0,1,1,1.481.741.741.741,0,0,1,.741,1.481Z" transform="translate(0.321 0.321)" fill="#fff"/>
    </g>
    <g id="Grupo_3893" data-name="Grupo 3893" transform="translate(6427.658 887.269)">
      <g id="Retângulo_620" data-name="Retângulo 620" transform="translate(0 5.019)" fill="#fff" stroke="#fff" stroke-width="1">
        <rect width="5.019" height="5.019" stroke="none"/>
        <rect x="0.5" y="0.5" width="4.019" height="4.019" fill="none"/>
      </g>
      <g id="Retângulo_621" data-name="Retângulo 621" fill="#fff" stroke="#fff" stroke-width="1">
        <path d="M4,0H5.019a0,0,0,0,1,0,0V5.019a0,0,0,0,1,0,0H0a0,0,0,0,1,0,0V4A4,4,0,0,1,4,0Z" stroke="none"/>
        <path d="M4,.5h.019a.5.5,0,0,1,.5.5V4.019a.5.5,0,0,1-.5.5H1a.5.5,0,0,1-.5-.5V4A3.5,3.5,0,0,1,4,.5Z" fill="none"/>
      </g>
      <g id="Retângulo_622" data-name="Retângulo 622" transform="translate(5.019 5.019)" fill="#fff" stroke="#fff" stroke-width="1">
        <path d="M0,0H5.019a0,0,0,0,1,0,0V1.019a4,4,0,0,1-4,4H0a0,0,0,0,1,0,0V0A0,0,0,0,1,0,0Z" stroke="none"/>
        <path d="M1,.5H4.019a.5.5,0,0,1,.5.5v.019a3.5,3.5,0,0,1-3.5,3.5H1a.5.5,0,0,1-.5-.5V1A.5.5,0,0,1,1,.5Z" fill="none"/>
      </g>
    </g>
  </g>
</svg>
